<svg xmlns="http://www.w3.org/2000/svg" viewBox="0 0 1000 850" font-family="Segoe UI, system-ui, sans-serif">
  <defs>
    <linearGradient id="bg" x1="0" y1="0" x2="0" y2="1"><stop offset="0%" stop-color="#0d1117"/><stop offset="100%" stop-color="#161b22"/></linearGradient>
    <linearGradient id="blue" x1="0" y1="0" x2="1" y2="1"><stop offset="0%" stop-color="#1f6feb"/><stop offset="100%" stop-color="#58a6ff"/></linearGradient>
    <linearGradient id="green" x1="0" y1="0" x2="1" y2="1"><stop offset="0%" stop-color="#238636"/><stop offset="100%" stop-color="#3fb950"/></linearGradient>
    <linearGradient id="orange" x1="0" y1="0" x2="1" y2="1"><stop offset="0%" stop-color="#9e6a03"/><stop offset="100%" stop-color="#d29922"/></linearGradient>
  </defs>

  <rect width="1000" height="850" fill="url(#bg)"/>

  <text x="500" y="32" text-anchor="middle" fill="#c9d1d9" font-size="17" font-weight="bold">open-pax — Como Trabaja en Tus Proyectos Reales</text>
  <text x="500" y="52" text-anchor="middle" fill="#8b949e" font-size="11">Tres ejemplos concretos de tu vida real · La Fábrica construye · Tu solo apruebas</text>

  <!-- ========== HOTEL AMIGA ========== -->
  <rect x="15" y="75" width="310" height="250" rx="8" fill="url(#blue)" opacity="0.05" stroke="#58a6ff" stroke-width="1.5"/>
  <text x="170" y="100" text-anchor="middle" fill="#58a6ff" font-size="14" font-weight="bold">🏨 Recepcionista AI — Hotel Amiga</text>
  <line x1="40" y1="110" x2="300" y2="110" stroke="#58a6ff" stroke-width="0.5" opacity="0.3"/>

  <!-- Paso 1 -->
  <rect x="30" y="120" width="280" height="35" rx="5" fill="#161b22" stroke="#30363d" stroke-width="0.5"/>
  <text x="45" y="143" fill="#c9d1d9" font-size="10">📞 1. Cliente llama al hotel</text>

  <rect x="30" y="160" width="280" height="35" rx="5" fill="#161b22" stroke="#30363d" stroke-width="0.5"/>
  <text x="45" y="183" fill="#c9d1d9" font-size="10">🤖 2. LiveKit contesta: voz natural, español</text>

  <rect x="30" y="200" width="280" height="50" rx="5" fill="#161b22" stroke="#30363d" stroke-width="0.5"/>
  <text x="45" y="218" fill="#c9d1d9" font-size="10">📋 3. El agente: "¿Que necesita?"</text>
  <text x="45" y="235" fill="#8b949e" font-size="9">→ Reservar / Cancelar / Preguntar precio</text>

  <rect x="30" y="255" width="280" height="35" rx="5" fill="#161b22" stroke="#30363d" stroke-width="0.5"/>
  <text x="45" y="278" fill="#c9d1d9" font-size="10">✅ 4. Confirma reserva o deriva a humano</text>

  <rect x="30" y="295" width="280" height="25" rx="4" fill="url(#green)" opacity="0.08" stroke="#3fb950" stroke-width="0.5"/>
  <text x="170" y="313" text-anchor="middle" fill="#3fb950" font-size="9">Impacto: $0/mes · tu amiga gana clientes</text>

  <!-- ========== POS YESIKA ========== -->
  <rect x="345" y="75" width="310" height="250" rx="8" fill="url(#green)" opacity="0.05" stroke="#3fb950" stroke-width="1.5"/>
  <text x="500" y="100" text-anchor="middle" fill="#3fb950" font-size="14" font-weight="bold">🍽️ POS Vanguardista — Yesika</text>
  <line x1="370" y1="110" x2="630" y2="110" stroke="#3fb950" stroke-width="0.5" opacity="0.3"/>

  <rect x="360" y="120" width="280" height="35" rx="5" fill="#161b22" stroke="#30363d" stroke-width="0.5"/>
  <text x="375" y="143" fill="#c9d1d9" font-size="10">🧠 1. open-pax planifica solo: "toca POS"</text>

  <rect x="360" y="160" width="280" height="35" rx="5" fill="#161b22" stroke="#30363d" stroke-width="0.5"/>
  <text x="375" y="183" fill="#c9d1d9" font-size="10">🏭 2. La Fabrica: 5 obreros en paralelo</text>

  <rect x="360" y="200" width="280" height="50" rx="5" fill="#161b22" stroke="#30363d" stroke-width="0.5"/>
  <text x="375" y="218" fill="#c9d1d9" font-size="10">🛑 3. open-pax: "Listo el modulo recibos"</text>
  <text x="375" y="235" fill="#8b949e" font-size="9">→ Telegram: botones [Ver demo] [Aprobar]</text>

  <rect x="360" y="255" width="280" height="35" rx="5" fill="#161b22" stroke="#30363d" stroke-width="0.5"/>
  <text x="375" y="278" fill="#c9d1d9" font-size="10">🧲 4. Mem0: "Erik quiere color ambar"</text>

  <rect x="360" y="295" width="280" height="25" rx="4" fill="url(#green)" opacity="0.08" stroke="#3fb950" stroke-width="0.5"/>
  <text x="500" y="313" text-anchor="middle" fill="#3fb950" font-size="9">Siguiente: modulo inventario → lunes</text>

  <!-- ========== IMPRESION 3D ========== -->
  <rect x="675" y="75" width="310" height="250" rx="8" fill="url(#orange)" opacity="0.05" stroke="#d29922" stroke-width="1.5"/>
  <text x="830" y="100" text-anchor="middle" fill="#d29922" font-size="14" font-weight="bold">🖨️ Impresion 3D — Ruta de Accion</text>
  <line x1="700" y1="110" x2="960" y2="110" stroke="#d29922" stroke-width="0.5" opacity="0.3"/>

  <rect x="690" y="120" width="280" height="35" rx="5" fill="#161b22" stroke="#30363d" stroke-width="0.5"/>
  <text x="705" y="143" fill="#c9d1d9" font-size="10">📡 1. Investigacion: mercado Cardel</text>

  <rect x="690" y="160" width="280" height="35" rx="5" fill="#161b22" stroke="#30363d" stroke-width="0.5"/>
  <text x="705" y="183" fill="#c9d1d9" font-size="10">💰 2. Finanzas: corrida CAPEX/OPEX/TIR</text>

  <rect x="690" y="200" width="280" height="50" rx="5" fill="#161b22" stroke="#30363d" stroke-width="0.5"/>
  <text x="705" y="218" fill="#c9d1d9" font-size="10">📊 3. Dossier HTML imprimible a PDF</text>
  <text x="705" y="235" fill="#8b949e" font-size="9">Listo para mostrar a inversionista/Coppel</text>

  <rect x="690" y="255" width="280" height="35" rx="5" fill="#161b22" stroke="#30363d" stroke-width="0.5"/>
  <text x="705" y="278" fill="#c9d1d9" font-size="10">🧲 4. Mem0: recuerda cada dato financiero</text>

  <rect x="690" y="295" width="280" height="25" rx="4" fill="url(#orange)" opacity="0.08" stroke="#d29922" stroke-width="0.5"/>
  <text x="830" y="313" text-anchor="middle" fill="#d29922" font-size="9">Siguiente: contactar proveedores</text>

  <!-- ========== FLUJO TRANSVERSAL ========== -->
  <text x="500" y="355" text-anchor="middle" fill="#c9d1d9" font-size="16" font-weight="bold">El Sistema Gestiona TODO en Paralelo — Sin que tu Persigas Nada</text>

  <rect x="15" y="375" width="970" height="75" rx="8" fill="#161b22" stroke="#30363d" stroke-width="1"/>

  <text x="500" y="400" text-anchor="middle" fill="#a371f7" font-size="12" font-weight="bold">open-pax en Oracle Frankfurt 24/7: cada 2 horas revisa TODOS los proyectos</text>

  <rect x="40" y="410" width="140" height="30" rx="5" fill="url(#blue)" opacity="0.1" stroke="#58a6ff" stroke-width="0.5"/>
  <text x="110" y="430" text-anchor="middle" fill="#58a6ff" font-size="9">Hotel: sin cambios</text>

  <rect x="195" y="410" width="140" height="30" rx="5" fill="url(#green)" opacity="0.1" stroke="#3fb950" stroke-width="0.5"/>
  <text x="265" y="430" text-anchor="middle" fill="#3fb950" font-size="9">POS: avanzo recibos</text>

  <rect x="350" y="410" width="140" height="30" rx="5" fill="url(#orange)" opacity="0.1" stroke="#d29922" stroke-width="0.5"/>
  <text x="420" y="430" text-anchor="middle" fill="#d29922" font-size="9">3D: investigando</text>

  <rect x="505" y="410" width="140" height="30" rx="5" fill="#161b22" stroke="#30363d" stroke-width="0.5"/>
  <text x="575" y="430" text-anchor="middle" fill="#8b949e" font-size="9">+11 proyectos</text>

  <rect x="660" y="410" width="140" height="30" rx="5" fill="url(#blue)" opacity="0.05" stroke="#58a6ff" stroke-width="0.5" stroke-dasharray="3,3"/>
  <text x="730" y="430" text-anchor="middle" fill="#58a6ff" font-size="9">GitHub: nueva tool!</text>

  <rect x="815" y="410" width="155" height="30" rx="5" fill="#da3633" opacity="0.08" stroke="#da3633" stroke-width="0.5" stroke-dasharray="3,3"/>
  <text x="892" y="430" text-anchor="middle" fill="#da3633" font-size="9">Alerta: metodo obsoleto</text>

  <!-- ========== EL REPORTE ========== -->
  <text x="500" y="485" text-anchor="middle" fill="#c9d1d9" font-size="16" font-weight="bold">Tu Reporte Diario por Telegram</text>

  <rect x="100" y="500" width="800" height="200" rx="10" fill="#161b22" stroke="#3fb950" stroke-width="1"/>

  <!-- Bubble -->
  <rect x="120" y="515" width="760" height="18" rx="3" fill="#a371f7" opacity="0.1"/>
  <text x="130" y="530" fill="#a371f7" font-size="9">@LaInconclusa80_bot · Hoy 9:00 AM</text>

  <rect x="130" y="538" width="480" height="60" rx="8" fill="#238636" opacity="0.1" stroke="#3fb950" stroke-width="0.5"/>
  <text x="145" y="558" fill="#c9d1d9" font-size="11">Buen dia Erik. Resumen de lo que avanzo anoche:</text>
  <text x="145" y="576" fill="#c9d1d9" font-size="11">✅ POS Yesika: modulo recibos listo, probado. [Ver demo]</text>
  <text x="145" y="594" fill="#c9d1d9" font-size="11">📡 Impresion 3D: mercado Cardel analizado, dossier listo. [Ver PDF]</text>

  <rect x="130" y="603" width="480" height="45" rx="8" fill="#1f6feb" opacity="0.1" stroke="#58a6ff" stroke-width="0.5"/>
  <text x="145" y="623" fill="#c9d1d9" font-size="11">⚠️ GitHub: "browser-use 4.0 salio. Tiene stealth mejorado.</text>
  <text x="145" y="641" fill="#c9d1d9" font-size="11">Relevante para crear cuentas en webs. ¿Actualizo?" [Si] [Luego]</text>

  <rect x="130" y="653" width="480" height="35" rx="8" fill="url(#orange)" opacity="0.06" stroke="#d29922" stroke-width="0.5"/>
  <text x="145" y="678" fill="#d29922" font-size="11">Hoy recomiendo enfocarte en: Impresion 3D (tiene mas urgencia)</text>

  <!-- Bottom -->
  <rect x="600" y="535" width="280" height="155" rx="8" fill="url(#green)" opacity="0.04" stroke="#3fb950" stroke-width="0.5" stroke-dasharray="3,3"/>
  <text x="740" y="558" text-anchor="middle" fill="#3fb950" font-size="11" font-weight="bold">Panel en el Celular</text>
  <text x="740" y="578" text-anchor="middle" fill="#8b949e" font-size="10">(accesible por Tailscale)</text>
  <text x="620" y="600" fill="#c9d1d9" font-size="9">🟢 POS: 60% (recibos listos)</text>
  <text x="620" y="616" fill="#c9d1d9" font-size="9">🟡 3D: 25% (investigacion)</text>
  <text x="620" y="632" fill="#c9d1d9" font-size="9">🟡 Hotel: 0% (esperando specs)</text>
  <text x="620" y="648" fill="#c9d1d9" font-size="9">🔴 Pax80: pausado</text>
  <text x="620" y="664" fill="#c9d1d9" font-size="9">+11 mas en segundo plano</text>
  <text x="620" y="684" fill="#3fb950" font-size="9">Todo $0/mes</text>

  <!-- ========== LO QUE open-pax NUNCA hace sin ti ========== -->
  <rect x="15" y="725" width="970" height="55" rx="8" fill="#da3633" opacity="0.04" stroke="#da3633" stroke-width="1" stroke-dasharray="5,3"/>
  <text x="500" y="748" text-anchor="middle" fill="#da3633" font-size="11" font-weight="bold">🛑 LO QUE NUNCA HACE SIN TU APROBACION EXPLICITA:</text>
  <text x="500" y="768" text-anchor="middle" fill="#c9d1d9" font-size="10">Gastar dinero · Publicar en internet · Borrar archivos · Enviar a clientes · Crear cuentas en webs de terceros · Modificar codigo en produccion</text>

  <!-- TDAH reminder -->
  <rect x="15" y="800" width="970" height="35" rx="6" fill="#a371f7" opacity="0.04" stroke="#a371f7" stroke-width="0.8" stroke-dasharray="4,2"/>
  <text x="500" y="823" text-anchor="middle" fill="#a371f7" font-size="11">🧩 TDAH-friendly: open-pax NO te abruma con 15 proyectos. Te da UN solo "hoy toca esto" priorizado con datos reales.</text>
</svg>